<svg width="72" height="35" viewBox="0 0 72 35" fill="none" xmlns="http://www.w3.org/2000/svg">
<path d="M33.088 25.096H24.576L23.072 29H15.392L25.184 6.6H32.608L42.4 29H34.592L33.088 25.096ZM31.008 19.656L28.832 14.024L26.656 19.656H31.008ZM50.2613 13.384C51.5413 11.912 53.4293 11.176 55.9253 11.176V17.576C55.3493 17.4907 54.8159 17.448 54.3253 17.448C51.8506 17.448 50.6133 18.7067 50.6133 21.224V29H43.3813V11.496H50.2613V13.384ZM71.3398 28.392C70.2518 29.0107 68.7691 29.32 66.8918 29.32C64.4384 29.32 62.5504 28.7333 61.2278 27.56C59.9051 26.3653 59.2438 24.584 59.2438 22.216V17.736H56.8438V12.456H59.2438V7.56H66.4758V12.456H70.0598V17.736H66.4758V22.152C66.4758 22.6853 66.6144 23.1013 66.8918 23.4C67.1691 23.6987 67.5318 23.848 67.9798 23.848C68.5984 23.848 69.1424 23.688 69.6118 23.368L71.3398 28.392Z" fill="white" fill-opacity="0.8"/>
<path d="M2.10525 6.6H13.1453C15.6413 6.6 17.8386 7.05867 19.7373 7.976C21.6573 8.872 23.1399 10.1627 24.1853 11.848C25.2519 13.5333 25.7853 15.5173 25.7853 17.8C25.7853 20.0827 25.2519 22.0667 24.1853 23.752C23.1399 25.4373 21.6573 26.7387 19.7373 27.656C17.8386 28.552 15.6413 29 13.1453 29H2.10525V6.6ZM12.8253 23.112C14.4466 23.112 15.7373 22.6533 16.6973 21.736C17.6786 20.7973 18.1693 19.4853 18.1693 17.8C18.1693 16.1147 17.6786 14.8133 16.6973 13.896C15.7373 12.9573 14.4466 12.488 12.8253 12.488H9.65725V23.112H12.8253Z" fill="white"/>
</svg>
